# xmcd
#
# Track frame offsets:
#	150
#	12873
#	24383
#	36943
#	47857
#	58539
#	74616
#	85851
#	99298
#	111930
#	125992
#	139214
#
# Disc length: 1997 seconds
# Revision: 3
# Processed by: cddbd v1.5.2PL0 Copyright (c) Steve Scherf et al.
# Submitted via: dBpowerAMP V12.0
#
DISCID=a807cb0c
DTITLE=Leon Russell - Hank Wilson, Vol. 2
DYEAR=2001
DGENRE=Country
TTITLE0=Wabash Cannonball
TTITLE1=Oh Lonesome Me
TTITLE2=Tennessee Waltz
TTITLE3=Heartaches by the Number
TTITLE4=If You've Got the Money Honey
TTITLE5=Tumbling Tumbleweeds
TTITLE6=I'm Movin' On
TTITLE7=Waltz Across Texas
TTITLE8=Don't Let the Stars Get in Your Eyes
TTITLE9=On the Wings of a Dove
TTITLE10=I'll Be There If You Ever Want Me
TTITLE11=I Saw the Light
EXTD=
EXTT0=
EXTT1=
EXTT2=
EXTT3=
EXTT4=
EXTT5=
EXTT6=
EXTT7=
EXTT8=
EXTT9=
EXTT10=
EXTT11=
PLAYORDER=
